<?xml version="1.0" encoding="iso-8859-1"?>
<!-- Generator: Adobe Illustrator 17.1.0, SVG Export Plug-In . SVG Version: 6.00 Build 0)  -->
<!DOCTYPE svg PUBLIC "-//W3C//DTD SVG 1.1//EN" "http://www.w3.org/Graphics/SVG/1.1/DTD/svg11.dtd">
<svg version="1.1" id="Capa_1" xmlns="http://www.w3.org/2000/svg" xmlns:xlink="http://www.w3.org/1999/xlink" x="0px" y="0px"
	 viewBox="0 0 420.004 420.004" style="enable-background:new 0 0 420.004 420.004;" xml:space="preserve">
<g>
	<path d="M209.996,0.003C94.204,0.003,0,94.209,0,210.005c0,115.792,94.204,209.996,209.996,209.996
		c115.799,0,210.008-94.204,210.008-209.996C420.004,94.209,325.795,0.003,209.996,0.003z M209.996,400.001
		C105.232,400.001,20,314.769,20,210.005c0-104.768,85.232-190.002,189.996-190.002c104.771,0,190.008,85.234,190.008,190.002
		C400.004,314.769,314.767,400.001,209.996,400.001z"/>
	<path d="M330.429,93.583c-3.839-3.971-10.169-4.076-14.14-0.237c-3.971,3.839-4.077,10.17-0.237,14.14
		c26.73,27.644,41.452,64.052,41.452,102.519c0,81.331-66.171,147.498-147.506,147.498c-81.331,0-147.498-66.167-147.498-147.498
		c0-81.333,66.167-147.502,147.498-147.502c24.965,0,49.631,6.349,71.329,18.359c4.828,2.674,10.916,0.925,13.592-3.906
		c2.675-4.832,0.926-10.917-3.906-13.592c-24.655-13.647-52.67-20.861-81.015-20.861C117.64,42.502,42.5,117.643,42.5,210.004
		c0,92.358,75.14,167.498,167.498,167.498c92.363,0,167.506-75.14,167.506-167.498C377.504,166.321,360.786,124.976,330.429,93.583z
		"/>
	<path d="M209.999,84.005c-69.474,0-125.995,56.523-125.995,125.999c0,69.474,56.521,125.995,125.995,125.995
		c12.841,0,25.514-1.928,37.667-5.73c5.271-1.648,8.207-7.259,6.559-12.529c-1.648-5.271-7.258-8.206-12.529-6.559
		c-10.219,3.196-20.883,4.817-31.696,4.817c-58.446,0-105.995-47.549-105.995-105.995c0-58.448,47.549-105.999,105.995-105.999
		c51.252,0,95.108,36.531,104.28,86.862c0.99,5.433,6.193,9.029,11.631,8.045c5.434-0.99,9.035-6.197,8.045-11.631
		C323.05,127.438,270.919,84.005,209.999,84.005z"/>
	<path d="M314.636,227.062c-4.229,26.166-18.089,49.675-39.023,66.196c-4.335,3.421-5.076,9.709-1.654,14.045
		c1.974,2.501,4.9,3.805,7.856,3.805c2.169,0,4.353-0.702,6.188-2.15c24.875-19.631,41.346-47.582,46.377-78.704
		c0.881-5.452-2.824-10.586-8.276-11.468C320.666,217.911,315.518,221.608,314.636,227.062z"/>
</g>
<g>
</g>
<g>
</g>
<g>
</g>
<g>
</g>
<g>
</g>
<g>
</g>
<g>
</g>
<g>
</g>
<g>
</g>
<g>
</g>
<g>
</g>
<g>
</g>
<g>
</g>
<g>
</g>
<g>
</g>
</svg>
